<?xml version="1.0" encoding="UTF-8" standalone="no"?>
<!-- Created with Inkscape (http://www.inkscape.org/) -->

<svg
   xmlns:dc="http://purl.org/dc/elements/1.1/"
   xmlns:cc="http://creativecommons.org/ns#"
   xmlns:rdf="http://www.w3.org/1999/02/22-rdf-syntax-ns#"
   xmlns:svg="http://www.w3.org/2000/svg"
   xmlns="http://www.w3.org/2000/svg"
   xmlns:sodipodi="http://sodipodi.sourceforge.net/DTD/sodipodi-0.dtd"
   xmlns:inkscape="http://www.inkscape.org/namespaces/inkscape"
   width="361.88803mm"
   height="361.88803mm"
   viewBox="0 0 361.88803 361.88803"
   id="svg_ffbsee"
   version="1.1"
   inkscape:version="0.92.2 2405546, 2018-03-11"
   sodipodi:docname="FFBSee.svg"
   inkscape:export-filename="W:\git\Grafik\Logo_FFBSee.png"
   inkscape:export-xdpi="800"
   inkscape:export-ydpi="800">
  <defs
     id="defs4941" />
  <sodipodi:namedview
     id="base"
     pagecolor="#ffffff"
     bordercolor="#666666"
     borderopacity="1.0"
     inkscape:pageopacity="0.0"
     inkscape:pageshadow="2"
     inkscape:zoom="0.40085497"
     inkscape:cx="167.42944"
     inkscape:cy="576.21816"
     inkscape:document-units="px"
     inkscape:current-layer="layer1"
     showgrid="false"
     showguides="true"
     inkscape:guide-bbox="true"
     fit-margin-top="0"
     fit-margin-left="0"
     fit-margin-right="0"
     fit-margin-bottom="0"
     inkscape:window-width="1916"
     inkscape:window-height="1024"
     inkscape:window-x="0"
     inkscape:window-y="26"
     inkscape:window-maximized="0">
    <sodipodi:guide
       position="41.538456,85.061502"
       orientation="1,0"
       id="guide5871"
       inkscape:locked="false" />
    <sodipodi:guide
       position="323.96242,284.64696"
       orientation="0,1"
       id="guide5877"
       inkscape:locked="false" />
    <sodipodi:guide
       position="323.7607,85.0604"
       orientation="0,1"
       id="guide5990"
       inkscape:locked="false" />
    <sodipodi:guide
       position="323.7607,85.0604"
       orientation="1,0"
       id="guide4175"
       inkscape:locked="false" />
  </sodipodi:namedview>
  <metadata
     id="metadata4944">
    <rdf:RDF>
      <cc:Work
         rdf:about="">
        <dc:format>image/svg+xml</dc:format>
        <dc:type
           rdf:resource="http://purl.org/dc/dcmitype/StillImage" />
        <dc:title />
      </cc:Work>
    </rdf:RDF>
  </metadata>
  <g
     inkscape:label="Ebene 1"
     inkscape:groupmode="layer"
     id="layer1"
     transform="translate(727.11279,-960.16846)">
    <rect
       style="opacity:0.9;fill:#000000;fill-opacity:1;stroke:none;stroke-width:0.28388625"
       id="rect850"
       width="388.28995"
       height="388.28995"
       x="-741.63385"
       y="948.2876" />
    <flowRoot
       xml:space="preserve"
       id="flowRoot5900"
       style="font-style:normal;font-weight:normal;line-height:0.01%;font-family:sans-serif;letter-spacing:0px;word-spacing:0px;fill:#000000;fill-opacity:1;stroke:none;stroke-width:1px;stroke-linecap:butt;stroke-linejoin:miter;stroke-opacity:1"
       transform="matrix(1.0705479,0,0,1.0705479,-691.95037,-297.50559)"><flowRegion
         id="flowRegion5902"><rect
           id="rect5904"
           width="1999.4039"
           height="179.43582"
           x="-4.5352678"
           y="1220.6235" /></flowRegion><flowPara
         id="flowPara5906"
         style="font-style:normal;font-variant:normal;font-weight:normal;font-stretch:normal;font-size:40px;line-height:1.25;font-family:Lato;-inkscape-font-specification:Lato"> </flowPara></flowRoot>    <path
       style="color:#000000;font-style:normal;font-variant:normal;font-weight:normal;font-stretch:normal;font-size:medium;line-height:normal;font-family:sans-serif;text-indent:0;text-align:start;text-decoration:none;text-decoration-line:none;text-decoration-style:solid;text-decoration-color:#000000;letter-spacing:normal;word-spacing:normal;text-transform:none;writing-mode:lr-tb;direction:ltr;baseline-shift:baseline;text-anchor:start;white-space:normal;clip-rule:nonzero;display:inline;overflow:visible;visibility:visible;opacity:1;isolation:auto;mix-blend-mode:normal;color-interpolation:sRGB;color-interpolation-filters:linearRGB;solid-color:#000000;solid-opacity:1;fill:#de2c68;fill-opacity:1;fill-rule:nonzero;stroke:#000000;stroke-width:0.21293487;stroke-linecap:butt;stroke-linejoin:miter;stroke-miterlimit:4;stroke-dasharray:none;stroke-dashoffset:0;stroke-opacity:1;color-rendering:auto;image-rendering:auto;shape-rendering:auto;text-rendering:auto;enable-background:accumulate"
       d="m -474.37737,1035.4966 c -29.1035,0 -52.70256,24.0158 -52.70256,53.5823 0,29.5665 23.59906,53.5823 52.70256,53.5823 29.10352,0 52.70255,-24.0158 52.70255,-53.5823 0,-29.5665 -23.59903,-53.5823 -52.70255,-53.5823 z m 0,2.5057 c 27.72619,0 50.19682,22.8416 50.19682,51.0766 0,28.2351 -22.47063,51.0769 -50.19682,51.0769 -27.72617,0 -50.19681,-22.8418 -50.19681,-51.0769 0,-28.235 22.47064,-51.0766 50.19681,-51.0766 z"
       id="circle3878"
       inkscape:connector-curvature="0" />
    <path
       style="color:#000000;font-style:normal;font-variant:normal;font-weight:normal;font-stretch:normal;font-size:medium;line-height:normal;font-family:sans-serif;text-indent:0;text-align:start;text-decoration:none;text-decoration-line:none;text-decoration-style:solid;text-decoration-color:#000000;letter-spacing:normal;word-spacing:normal;text-transform:none;writing-mode:lr-tb;direction:ltr;baseline-shift:baseline;text-anchor:start;white-space:normal;clip-rule:nonzero;display:inline;overflow:visible;visibility:visible;opacity:1;isolation:auto;mix-blend-mode:normal;color-interpolation:sRGB;color-interpolation-filters:linearRGB;solid-color:#000000;solid-opacity:1;fill:#de2c68;fill-opacity:1;fill-rule:nonzero;stroke:#000000;stroke-width:0.21293487;stroke-linecap:butt;stroke-linejoin:miter;stroke-miterlimit:4;stroke-dasharray:none;stroke-dashoffset:0;stroke-opacity:1;color-rendering:auto;image-rendering:auto;shape-rendering:auto;text-rendering:auto;enable-background:accumulate"
       d="m -547.16006,1040.0879 c -25.30007,0 -45.8128,20.9279 -45.8128,46.6854 0,25.7576 20.51273,46.6852 45.8128,46.6852 25.30007,0 45.8125,-20.9276 45.8125,-46.6852 0,-25.7575 -20.51243,-46.6854 -45.8125,-46.6854 z m 0,2.3468 c 24.00698,0 43.46561,19.8251 43.46561,44.3386 0,24.5136 -19.45863,44.3385 -43.46561,44.3385 -24.00698,0 -43.46591,-19.8249 -43.46591,-44.3385 0,-24.5135 19.45893,-44.3386 43.46591,-44.3386 z"
       id="ellipse5364"
       inkscape:connector-curvature="0" />
    <path
       inkscape:connector-curvature="0"
       id="path3338"
       d="m -474.55517,1196.164 c -1.16399,-0.1595 -2.27839,-0.4109 -2.47659,-0.5586 -0.19811,-0.1477 -1.45657,-1.0945 -2.79652,-2.1041 -2.84324,-2.142 -5.17332,-3.1732 -7.50191,-3.3198 -1.04581,-0.066 -1.97548,-0.4194 -2.49643,-0.9491 -0.45652,-0.4644 -1.78349,-1.0569 -2.94888,-1.3169 -2.37768,-0.5304 -2.9546,-1.0604 -3.79392,-3.4861 -0.52541,-1.5186 -0.77445,-1.7571 -2.50476,-2.3996 -3.09211,-1.1482 -4.64391,-1.8657 -6.24273,-2.8863 -0.82542,-0.5269 -1.64542,-0.9293 -1.82217,-0.894 -0.17673,0.035 -2.00065,-1.0052 -4.05313,-2.3122 -2.05254,-1.3069 -4.43356,-2.6576 -5.29114,-3.0016 -1.87864,-0.7534 -2.95056,-2.6094 -3.11885,-5.4002 -0.0615,-1.0187 -0.36005,-2.5035 -0.66335,-3.2995 -0.47248,-1.2392 -0.8708,-1.578 -2.77031,-2.3567 -1.22011,-0.5003 -2.48426,-0.8566 -2.80918,-0.7917 -0.32486,0.065 -0.7045,0 -0.84359,-0.1533 -0.13908,-0.1492 -1.98902,-0.7402 -4.11106,-1.3133 -2.12201,-0.5731 -4.11438,-1.2497 -4.42749,-1.5035 -0.31309,-0.2538 -0.84235,-0.4096 -1.17603,-0.3461 -0.33369,0.063 -1.01403,-0.018 -1.51187,-0.1821 -3.9292,-1.2909 -5.88701,-2.0925 -8.25249,-3.379 -5.88437,-3.2004 -6.01255,-3.2499 -11.41455,-4.4097 -1.83256,-0.3934 -8.58235,-2.2093 -12.06147,-3.2449 -1.69683,-0.5051 -3.85929,-0.8715 -4.80547,-0.8142 -1.75684,0.106 -5.74389,-0.66 -6.24848,-1.2011 -0.35898,-0.385 -5.86955,-1.9057 -6.47086,-1.7857 -0.2503,0.05 -1.73479,-0.2388 -3.29881,-0.6417 -3.10053,-0.7987 -5.51183,-2.4747 -6.5618,-4.5607 -0.33123,-0.658 -0.91028,-1.402 -1.28678,-1.6533 -1.03041,-0.6877 -4.9065,0.2083 -6.80211,1.5724 -3.76266,2.7074 -5.36511,3.4015 -7.93236,3.4353 -1.32177,0.017 -4.09904,0.2589 -6.1717,0.5366 -3.49157,0.4677 -3.90959,0.4388 -5.68872,-0.393 -1.68507,-0.7879 -2.09648,-0.8308 -3.3585,-0.3495 -0.79105,0.3017 -6.13238,1.4563 -11.8696,2.5657 -10.37718,2.0068 -10.43914,2.0237 -11.92805,3.2515 -0.82321,0.6788 -2.32823,1.6179 -3.3446,2.0869 -2.08586,0.9627 -4.1148,2.4608 -4.59403,3.3922 -0.99107,1.9262 -4.35056,5.7755 -5.41366,6.203 -0.65926,0.2651 -1.66312,0.9925 -2.23079,1.6165 -0.5677,0.6239 -1.24676,1.1771 -1.50903,1.2295 -0.26229,0.052 -0.95846,0.5388 -1.54704,1.081 -0.58858,0.5422 -1.68515,1.1092 -2.43676,1.2599 -0.93121,0.1869 -1.67466,0.6595 -2.33368,1.4839 -0.63645,0.7962 -1.55291,1.3923 -2.6805,1.7435 -1.03732,0.3231 -1.99331,0.9142 -2.42279,1.4978 -1.01434,1.3785 -4.46367,2.0547 -6.14051,1.2038 -0.65645,-0.3332 -1.69159,-0.6154 -2.30031,-0.6271 -0.60867,-0.012 -1.45081,-0.2766 -1.87135,-0.5887 -0.43578,-0.3233 -1.56538,-0.519 -2.6264,-0.4551 -2.3036,0.139 -3.31775,-0.5056 -2.40718,-1.5299 0.48231,-0.5425 1.27059,-0.7745 3.54785,-1.044 1.61026,-0.1904 3.39064,-0.2686 3.95646,-0.1735 1.77992,0.299 3.68026,-0.3197 6.51784,-2.1218 1.51101,-0.9596 3.75022,-2.2587 4.97611,-2.8869 1.22579,-0.6282 2.37628,-1.3632 2.55663,-1.6334 0.18038,-0.2703 0.60377,-0.5464 0.94096,-0.6137 0.33717,-0.067 1.28159,-1.0499 2.09867,-2.1838 0.8171,-1.1338 2.11684,-2.5104 2.88836,-3.0592 0.77152,-0.5487 1.47866,-1.2013 1.57136,-1.4502 0.0927,-0.2489 0.61032,-0.5408 1.1502,-0.6485 1.63454,-0.3261 9.82058,-13.3103 9.47709,-15.0321 -0.0893,-0.4476 -0.6712,-1.0908 -1.29312,-1.4295 -0.62192,-0.3386 -1.479,-0.8271 -1.90465,-1.0854 -0.42568,-0.2583 -1.43994,-0.462 -2.25393,-0.4527 -0.814,0.011 -1.93527,-0.2141 -2.49175,-0.4964 -0.55645,-0.2824 -1.57079,-0.5204 -2.25412,-0.5289 -0.68333,-0.011 -1.53573,-0.1767 -1.89427,-0.3738 -0.35855,-0.1971 -1.36364,-0.4352 -2.2336,-0.5291 -0.86995,-0.094 -1.85085,-0.3119 -2.17975,-0.4846 -0.61805,-0.3244 -2.71847,-0.9854 -5.70353,-1.7947 -0.94475,-0.2561 -2.17689,-0.898 -2.73818,-1.4262 l -1.02051,-0.9605 1.32207,-1.7932 c 1.43691,-1.949 5.36771,-4.4138 6.92284,-4.3409 4.69163,0.2199 5.06061,0.2879 9.72495,1.7902 3.21818,1.0365 5.03495,0.9948 4.81445,-0.1104 -0.11348,-0.5688 -3.43868,-2.4749 -4.09065,-2.3448 -0.33229,0.066 -3.88196,-1.4883 -4.45037,-1.9491 -0.41125,-0.3333 -0.40082,-0.6861 0.0464,-1.5673 0.31736,-0.6254 0.79116,-1.1798 1.0528,-1.232 0.5093,-0.1017 3.56672,0.7534 5.46441,1.5279 2.77846,1.1343 6.40259,2.2233 11.41811,3.4308 1.11772,0.2692 3.04189,0.7377 4.27592,1.0414 1.23405,0.3036 2.45124,0.5105 2.70487,0.46 0.25365,-0.05 1.15281,0.1182 1.99819,0.3752 0.84533,0.2569 1.79313,0.4161 2.10623,0.3536 0.31303,-0.062 1.23336,0.088 2.04512,0.3351 0.8118,0.2468 2.22101,0.498 3.13156,0.5583 3.60467,0.2387 10.53157,4.146 10.93497,6.168 0.31815,1.5947 -0.82415,2.22 -5.10331,2.7935 l -3.81742,0.5116 -2.21081,-1.3001 c -3.92314,-2.3071 -4.62069,-2.5325 -7.37919,-2.3852 -3.75526,0.2005 -3.59864,0.1049 -3.22699,1.9679 0.50704,2.5417 1.24031,3.2954 3.34197,3.4353 0.99939,0.066 2.133,0.2979 2.51915,0.514 0.38611,0.2163 1.71993,0.3564 2.96404,0.3115 1.24408,-0.045 2.75633,0.016 3.36056,0.1353 0.62236,0.1228 1.68581,-0.012 2.45322,-0.3096 0.74502,-0.2895 2.74808,-0.9966 4.45124,-1.5714 4.2735,-1.4423 4.87835,-1.256 7.65886,2.3597 1.75204,2.2783 2.4753,2.9135 3.88818,3.4145 l 1.73574,0.6156 1.95604,-1.2725 c 1.07582,-0.6998 2.27865,-1.6936 2.67293,-2.2084 0.63952,-0.8349 1.13975,-1.0097 4.63341,-1.6186 2.76412,-0.4818 4.30202,-0.5708 5.22672,-0.3026 1.28442,0.3724 9.79309,-0.5334 10.77525,-1.1472 0.68018,-0.425 0.15652,-2.05 -1.13287,-3.5159 -0.65096,-0.7401 -1.41647,-1.9352 -1.70112,-2.6559 -0.66662,-1.6877 -3.42614,-4.007 -6.80479,-5.719 -1.51888,-0.7697 -2.99673,-1.8379 -3.42736,-2.4773 -0.41639,-0.6183 -1.22824,-1.4299 -1.80407,-1.8036 -1.04106,-0.6755 -1.23573,-1.0886 -3.73163,-7.921 -1.01592,-2.7812 -2.26077,-4.1347 -4.83481,-5.2567 -6.60566,-2.8797 -6.37305,-2.8182 -9.23903,-2.438 -2.94305,0.3906 -4.4688,-0.011 -7.82995,-2.0324 -2.34325,-1.4131 -4.71333,-2.1622 -9.29148,-2.9364 -2.09224,-0.3538 -4.01433,-0.7286 -4.27131,-0.833 -0.257,-0.1049 -1.01682,-0.422 -1.68849,-0.7058 -1.39813,-0.5909 -15.29243,-9.9733 -15.3763,-10.3831 -0.0296,-0.1488 -0.50839,-0.453 -1.0622,-0.6762 -1.18583,-0.4779 -2.30875,-3.0899 -1.9032,-4.427 0.13886,-0.4578 1.08615,-1.4515 2.10512,-2.2083 1.49382,-1.1094 2.16709,-1.3876 3.47578,-1.4366 1.8688,-0.07 2.70863,0.2155 6.4034,2.1756 4.01131,2.1282 5.17854,2.6671 5.5956,2.5839 0.20775,-0.042 0.93006,0.226 1.60504,0.5942 0.67499,0.3682 1.67175,0.7156 2.21504,0.7721 0.54328,0.057 1.43231,0.3261 1.9756,0.5994 0.54335,0.2732 1.48205,0.5063 2.08607,0.518 0.60405,0.012 1.56514,0.3542 2.13578,0.7614 0.57065,0.4071 1.19718,0.7083 1.39229,0.6695 0.19508,-0.039 1.77822,0.8485 3.51806,1.9721 5.50856,3.5576 5.31315,3.4808 8.12071,3.1885 1.67002,-0.1741 2.95992,-0.076 3.72052,0.2813 0.64038,0.3013 1.37138,0.5065 1.62445,0.4559 0.25314,-0.05 1.13378,0.183 1.95704,0.5188 4.04351,1.6495 5.66836,2.2162 6.10501,2.129 0.26284,-0.052 1.17824,0.2002 2.03426,0.5615 0.85604,0.3612 1.96719,0.5748 2.4691,0.4747 0.50202,-0.1 1.40527,0.068 2.00728,0.3734 0.60204,0.3056 1.34336,0.5059 1.64733,0.4453 0.72327,-0.1443 3.85339,1.0204 5.98414,2.2268 1.20463,0.6821 1.82567,1.334 2.16801,2.2759 0.26386,0.726 0.86309,2.0272 1.33162,2.8913 0.46849,0.8642 1.08721,2.1929 1.37497,2.9527 0.41703,1.1015 1.18457,1.8114 3.7851,3.501 1.7941,1.1657 4.0835,2.441 5.08753,2.8339 1.0041,0.3929 2.69424,1.1408 3.75584,1.6622 1.06163,0.5213 2.58484,1.1744 3.38491,1.4513 0.80004,0.277 2.30627,0.8449 3.34711,1.2622 1.0409,0.4173 3.3711,1.1882 5.17828,1.7131 1.80718,0.525 3.74754,1.1877 4.31191,1.4728 0.5644,0.2851 1.29675,0.465 1.62745,0.3998 0.33067,-0.065 1.70596,0.1822 3.05609,0.5496 1.35014,0.3676 2.63831,0.6322 2.86258,0.5883 0.22419,-0.044 0.75933,0.1809 1.18901,0.4997 0.42969,0.3188 1.4064,0.5726 2.17043,0.5638 0.76403,-0.011 2.29379,0.249 3.39947,0.5728 2.47033,0.7234 4.82954,0.1197 7.64971,-1.9576 1.0205,-0.7516 2.1548,-1.4281 2.52071,-1.5031 0.36601,-0.075 1.22416,-0.5734 1.90717,-1.1073 1.48791,-1.163 3.58285,-1.943 7.37362,-2.7452 3.15842,-0.6685 5.99031,-0.2291 7.33428,1.1378 0.76525,0.7783 2.08407,1.0068 7.56209,1.3108 6.83224,0.379 7.15025,0.3622 8.8257,-0.4641 0.86782,-0.4281 2.0608,-0.8748 2.65106,-0.9925 1.93717,-0.3865 5.68938,1.0443 9.25069,3.5274 3.20385,2.2338 3.4721,2.5278 5.38143,5.898 1.40603,2.4818 2.29773,3.6632 2.96943,3.9338 1.07351,0.4327 1.69891,1.2923 3.12684,4.2975 0.82751,1.7417 1.37692,2.3152 3.57855,3.7357 2.35223,1.5177 3.26739,1.9429 6.40563,2.9765 2.6234,0.8639 7.569,-0.5127 9.79954,-2.7279 1.1812,-1.1731 1.73579,-1.4722 2.751,-1.4839 1.47751,-0.017 3.87457,1.512 4.51616,2.8806 0.24415,0.5209 0.82152,1.1727 1.283,1.4485 0.46149,0.2758 0.88283,0.7208 0.93632,0.9888 0.18582,0.9314 1.78903,1.0546 4.17068,0.3205 2.13272,-0.6574 2.33614,-0.6539 2.90735,0.05 0.79203,0.9761 1.3256,1.1822 2.48173,0.9589 0.59115,-0.114 1.7498,0.3106 3.12474,1.1457 l 2.18527,1.3272 4.76812,-0.6618 c 4.4192,-0.6134 4.88279,-0.6058 6.33434,0.1039 0.86138,0.4211 1.54211,0.9722 1.51266,1.2247 -0.0294,0.2524 -0.62069,0.8836 -1.31385,1.4026 -1.68909,1.2646 -1.33816,2.2352 0.72191,1.9967 1.32039,-0.1529 1.58644,-0.3537 2.37606,-1.7939 0.58116,-1.0602 1.42549,-1.9063 2.43777,-2.4429 3.59353,-1.905 6.36574,-1.3387 9.73079,1.9873 1.25273,1.2382 2.96266,2.637 3.7998,3.1084 0.8371,0.4715 2.79906,1.56 4.35977,2.4191 2.97746,1.6388 3.83925,2.6378 4.30965,4.9957 0.20994,1.0524 0.0626,1.803 -0.56126,2.8594 l -0.84602,1.4323 -6.44369,1.3018 c -3.54398,0.7161 -6.65324,1.3797 -6.9093,1.4751 -0.25616,0.095 -1.1086,1.059 -1.89435,2.1414 -1.56936,2.1616 -4.11465,4.5548 -5.04108,4.7396 -0.32531,0.065 -1.00431,-0.2349 -1.50885,-0.6663 -0.50451,-0.4314 -1.19755,-0.7284 -1.53994,-0.6601 -0.77387,0.1543 -2.56097,2.9563 -3.11039,4.8766 -0.22603,0.7899 -0.84082,2.0443 -1.36625,2.7875 l -0.95539,1.3515 -1.81101,-1.38 c -1.75863,-1.34 -1.81759,-1.4427 -2.04135,-3.5586 l -0.23034,-2.1788 -1.11061,0.2216 c -0.61084,0.1218 -1.08181,0.3662 -1.0465,0.5432 0.11116,0.5571 -2.89104,4.8615 -4.00487,5.742 -0.58611,0.4634 -1.63524,1.6184 -2.33136,2.5668 -1.97014,2.684 -3.47267,3.0933 -8.74867,2.3831 -2.26038,-0.3042 -3.00319,-0.5966 -3.95438,-1.5564 -1.14252,-1.1531 -2.66264,-1.3824 -3.0086,-0.454 -0.08,0.2148 -0.73874,0.4119 -1.46384,0.438 -1.2051,0.044 -1.32227,0.1438 -1.36397,1.1682 -0.0251,0.6163 -0.24931,1.5965 -0.49837,2.1782 -0.24897,0.5818 -0.53041,1.7205 -0.6254,2.5308 -0.2387,2.0359 -2.70941,4.9045 -5.13893,5.9666 -1.02051,0.4461 -3.41916,1.2641 -5.33039,1.8177 -1.91119,0.5537 -3.70616,1.1565 -3.98887,1.3397 -0.28262,0.1833 -1.46622,0.2026 -2.63015,0.043 z"
       style="fill:#009ee0;fill-opacity:1;stroke:#000000;stroke-width:0.84224129;stroke-linecap:square;stroke-linejoin:miter;stroke-miterlimit:4;stroke-dasharray:none"
       inkscape:export-filename="/home/kr0l/pixelflutffbsee.png"
       inkscape:export-xdpi="7.1930156"
       inkscape:export-ydpi="7.1930156" />
    <path
       style="color:#000000;font-style:normal;font-variant:normal;font-weight:normal;font-stretch:normal;font-size:medium;line-height:normal;font-family:sans-serif;text-indent:0;text-align:start;text-decoration:none;text-decoration-line:none;text-decoration-style:solid;text-decoration-color:#000000;letter-spacing:normal;word-spacing:normal;text-transform:none;writing-mode:lr-tb;direction:ltr;baseline-shift:baseline;text-anchor:start;white-space:normal;clip-rule:nonzero;display:inline;overflow:visible;visibility:visible;opacity:1;isolation:auto;mix-blend-mode:normal;color-interpolation:sRGB;color-interpolation-filters:linearRGB;solid-color:#000000;solid-opacity:1;fill:#de2c68;fill-opacity:1;fill-rule:nonzero;stroke:#000000;stroke-width:1.04763961;stroke-linecap:butt;stroke-linejoin:miter;stroke-miterlimit:4;stroke-dasharray:none;stroke-dashoffset:0;stroke-opacity:1;color-rendering:auto;image-rendering:auto;shape-rendering:auto;text-rendering:auto;enable-background:accumulate"
       d="m -474.59693,1014.3278 c -19.66521,0 -38.52703,7.8947 -52.41373,21.9174 -13.8867,14.0228 -21.67755,33.0286 -21.67755,52.8337 0,19.8052 7.79085,38.8106 21.67755,52.8335 13.8867,14.0228 32.74852,21.9174 52.41373,21.9174 19.66521,0 38.52703,-7.8946 52.41373,-21.9174 13.88669,-14.0229 21.67754,-33.0286 21.67754,-52.8338 0,-19.8051 -7.79085,-38.8106 -21.67754,-52.8334 -13.8867,-14.0227 -32.74852,-21.9174 -52.41373,-21.9174 z m 0,13.5561 c 16.03989,0 31.42094,6.4284 42.78156,17.9004 11.3606,11.4719 17.75357,27.0448 17.75357,43.2946 0,16.2499 -6.39297,31.8225 -17.75357,43.2944 -11.36062,11.472 -26.74167,17.9004 -42.78156,17.9004 -16.03988,0 -31.42064,-6.4284 -42.78126,-17.9004 -11.36062,-11.4719 -17.75359,-27.0445 -17.75359,-43.2944 0,-16.2498 6.39297,-31.8227 17.75359,-43.2946 11.36062,-11.472 26.74138,-17.9004 42.78126,-17.9004 z"
       id="ellipse5485"
       inkscape:connector-curvature="0" />
    <g
       id="g4252"
       transform="matrix(0.15089873,0,0,0.15089873,-593.22632,1061.6324)"
       inkscape:export-filename="/home/kr0l/pixelflutffbsee.png"
       inkscape:export-xdpi="7.1930156"
       inkscape:export-ydpi="7.1930156">
      <polygon
         inkscape:transform-center-y="6.0807202"
         inkscape:transform-center-x="-735.76717"
         id="polygon5366"
         transform="matrix(-7.2633158,0,0,7.5170891,706.74163,-127.7118)"
         points="81,41 73,41 64,50 73,59 81,59 75,53 88,53 88,47 75,47 "
         style="fill:#ffcc33;fill-opacity:1" />
      <polygon
         style="fill:#ffcc33;fill-opacity:1"
         points="75,53 88,53 88,47 75,47 81,41 73,41 64,50 73,59 81,59 "
         transform="matrix(14.898881,0,0,15.419433,-240.62554,-520.72469)"
         id="polygon5867"
         inkscape:transform-center-x="1509.2428"
         inkscape:transform-center-y="12.473066" />
    </g>
    <path
       d="m -691.34004,1222.273 q 0.6493,0.9397 1.40681,1.3267 0.77298,0.387 1.62325,0.387 0.88119,0 1.57687,-0.3686 0.71113,-0.387 1.20584,-1.1793 0.4947,-0.8108 0.75751,-2.0455 0.26282,-1.2531 0.26282,-2.9852 0,-3.1143 -0.86573,-4.4962 -0.86574,-1.4005 -2.48898,-1.4005 -1.09762,0 -1.91698,0.6081 -0.81935,0.5896 -1.56141,1.6769 z m 0,-11.6829 q 0.95849,-1.1979 2.11795,-1.8981 1.17492,-0.7187 2.67449,-0.7187 1.37589,0 2.47353,0.645 1.11308,0.6449 1.88605,1.8612 0.78843,1.1977 1.20584,2.9114 0.4174,1.7138 0.4174,3.8513 0,2.3034 -0.47924,4.1831 -0.47924,1.8796 -1.37589,3.2247 -0.8812,1.3268 -2.13342,2.0639 -1.25221,0.7371 -2.7827,0.7371 -0.74205,0 -1.34498,-0.1843 -0.60292,-0.1658 -1.11308,-0.4791 -0.51017,-0.3133 -0.94303,-0.7555 -0.41741,-0.4607 -0.8039,-1.0135 l -0.17004,1.2715 q -0.0927,0.4791 -0.32466,0.6818 -0.21643,0.2027 -0.60292,0.2027 h -2.5199 v -27.3829 h 3.8185 z"
       style="font-style:normal;font-variant:normal;font-weight:bold;font-stretch:normal;font-size:200px;line-height:100%;font-family:Lato;-inkscape-font-specification:'Lato Bold';letter-spacing:0px;word-spacing:0px;fill:#009ee0;fill-opacity:1;stroke:none;stroke-width:1.07054794px;stroke-linecap:butt;stroke-linejoin:miter;stroke-opacity:1"
       id="path3419"
       inkscape:connector-curvature="0"
       inkscape:export-filename="/home/kr0l/pixelflutffbsee.png"
       inkscape:export-xdpi="7.1930156"
       inkscape:export-ydpi="7.1930156" />
    <path
       d="m -670.56683,1207.9733 q 1.76239,0 3.20011,0.6819 1.4532,0.6818 2.47352,1.9349 1.03579,1.2529 1.59233,3.0588 0.55654,1.806 0.55654,4.0356 0,2.2481 -0.55654,4.054 -0.55654,1.8058 -1.59233,3.0773 -1.02032,1.2715 -2.47352,1.9534 -1.43772,0.6818 -3.20011,0.6818 -1.77784,0 -3.23103,-0.6818 -1.4532,-0.6819 -2.48899,-1.9534 -1.02031,-1.2715 -1.59232,-3.0773 -0.55654,-1.8059 -0.55654,-4.054 0,-2.2296 0.55654,-4.0356 0.57201,-1.8059 1.59232,-3.0588 1.03579,-1.2531 2.48899,-1.9349 1.45319,-0.6819 3.23103,-0.6819 z m 0,15.9765 q 1.97882,0 2.92184,-1.5848 0.9585,-1.5847 0.9585,-4.6436 0,-3.059 -0.9585,-4.6621 -0.94302,-1.6032 -2.92184,-1.6032 -2.00973,0 -2.98368,1.6216 -0.95849,1.6031 -0.95849,4.6437 0,3.0405 0.95849,4.6436 0.97395,1.5848 2.98368,1.5848 z"
       style="font-style:normal;font-variant:normal;font-weight:bold;font-stretch:normal;font-size:200px;line-height:100%;font-family:Lato;-inkscape-font-specification:'Lato Bold';letter-spacing:0px;word-spacing:0px;fill:#009ee0;fill-opacity:1;stroke:none;stroke-width:1.07054794px;stroke-linecap:butt;stroke-linejoin:miter;stroke-opacity:1"
       id="path3421"
       inkscape:connector-curvature="0"
       inkscape:export-filename="/home/kr0l/pixelflutffbsee.png"
       inkscape:export-xdpi="7.1930156"
       inkscape:export-ydpi="7.1930156" />
    <path
       d="m -649.87527,1213.0961 q -0.6493,-0.9398 -1.42227,-1.3267 -0.75752,-0.387 -1.63871,-0.387 -0.86573,0 -1.5614,0.387 -0.69569,0.3869 -1.19039,1.1793 -0.4947,0.774 -0.75752,1.9902 -0.26281,1.1978 -0.26281,2.8378 0,1.6585 0.21644,2.8194 0.23189,1.1424 0.6493,1.8795 0.4174,0.7187 1.02032,1.0503 0.60293,0.3133 1.34498,0.3133 1.19038,0 2.02519,-0.5896 0.83482,-0.5897 1.57687,-1.6769 z m 3.81849,-13.3044 v 27.3829 h -2.33438 q -0.75751,0 -0.95848,-0.8293 l -0.32466,-1.8243 q -0.95848,1.3084 -2.2107,2.1192 -1.23676,0.8108 -2.89093,0.8108 -1.2986,0 -2.38076,-0.645 -1.08216,-0.6449 -1.8706,-1.8612 -0.77297,-1.2345 -1.20583,-3.0404 -0.41741,-1.8059 -0.41741,-4.1277 0,-2.1008 0.47924,-3.9067 0.47924,-1.8058 1.37589,-3.1325 0.89666,-1.3269 2.14888,-2.0639 1.25221,-0.7555 2.81363,-0.7555 1.32951,0 2.27254,0.4975 0.94303,0.4976 1.68508,1.3452 v -9.9691 z"
       style="font-style:normal;font-variant:normal;font-weight:bold;font-stretch:normal;font-size:200px;line-height:100%;font-family:Lato;-inkscape-font-specification:'Lato Bold';letter-spacing:0px;word-spacing:0px;fill:#009ee0;fill-opacity:1;stroke:none;stroke-width:1.07054794px;stroke-linecap:butt;stroke-linejoin:miter;stroke-opacity:1"
       id="path3423"
       inkscape:connector-curvature="0"
       inkscape:export-filename="/home/kr0l/pixelflutffbsee.png"
       inkscape:export-xdpi="7.1930156"
       inkscape:export-ydpi="7.1930156" />
    <path
       d="m -632.03937,1215.5469 q 0,-0.8845 -0.21643,-1.6584 -0.20097,-0.7924 -0.61838,-1.382 -0.41741,-0.5897 -1.0667,-0.9214 -0.63384,-0.3501 -1.48411,-0.3501 -1.65416,0 -2.61266,1.124 -0.94303,1.1241 -1.20584,3.1879 z m -7.28141,2.7458 q 0.0927,1.4557 0.43286,2.5244 0.34012,1.0504 0.89665,1.7506 0.55655,0.6819 1.31406,1.032 0.77297,0.3316 1.70054,0.3316 0.92758,0 1.59233,-0.258 0.68022,-0.258 1.17492,-0.5712 0.51017,-0.3132 0.8812,-0.5712 0.38648,-0.2579 0.74205,-0.2579 0.47924,0 0.71113,0.4238 l 1.09763,1.6584 q -0.63384,0.8845 -1.42227,1.4926 -0.78844,0.5897 -1.65417,0.9582 -0.85027,0.3502 -1.74692,0.4976 -0.88119,0.1474 -1.716,0.1474 -1.65417,0 -3.07645,-0.645 -1.42226,-0.6633 -2.47351,-1.9348 -1.05124,-1.2899 -1.65417,-3.1695 -0.60292,-1.8981 -0.60292,-4.3857 0,-1.9349 0.52562,-3.6302 0.52563,-1.7138 1.49958,-2.9668 0.9894,-1.2715 2.39622,-2.0086 1.42226,-0.7371 3.20011,-0.7371 1.49957,0 2.76725,0.5713 1.26768,0.5712 2.17979,1.6769 0.9121,1.0872 1.42227,2.6904 0.52562,1.5847 0.52562,3.6301 0,1.032 -0.1855,1.4005 -0.18552,0.3502 -0.71115,0.3502 z"
       style="font-style:normal;font-variant:normal;font-weight:bold;font-stretch:normal;font-size:200px;line-height:100%;font-family:Lato;-inkscape-font-specification:'Lato Bold';letter-spacing:0px;word-spacing:0px;fill:#009ee0;fill-opacity:1;stroke:none;stroke-width:1.07054794px;stroke-linecap:butt;stroke-linejoin:miter;stroke-opacity:1"
       id="path3425"
       inkscape:connector-curvature="0"
       inkscape:export-filename="/home/kr0l/pixelflutffbsee.png"
       inkscape:export-xdpi="7.1930156"
       inkscape:export-ydpi="7.1930156" />
    <path
       d="m -622.20085,1210.5901 q 0.47925,-0.5713 1.00487,-1.0505 0.54109,-0.4974 1.12854,-0.8292 0.60292,-0.3501 1.28314,-0.5343 0.68022,-0.2028 1.48411,-0.2028 1.2986,0 2.30347,0.5344 1.00487,0.5161 1.66962,1.4742 0.68022,0.9398 1.02033,2.2666 0.35557,1.3083 0.35557,2.893 v 12.0331 h -3.81849 v -12.0331 q 0,-1.7321 -0.66477,-2.6719 -0.66476,-0.9582 -2.02519,-0.9582 -0.98941,0 -1.85514,0.5344 -0.86573,0.5343 -1.63871,1.4557 v 13.6731 h -3.81848 v -18.9064 h 2.33438 q 0.74205,0 0.97394,0.8292 z"
       style="font-style:normal;font-variant:normal;font-weight:bold;font-stretch:normal;font-size:200px;line-height:100%;font-family:Lato;-inkscape-font-specification:'Lato Bold';letter-spacing:0px;word-spacing:0px;fill:#009ee0;fill-opacity:1;stroke:none;stroke-width:1.07054794px;stroke-linecap:butt;stroke-linejoin:miter;stroke-opacity:1"
       id="path3427"
       inkscape:connector-curvature="0"
       inkscape:export-filename="/home/kr0l/pixelflutffbsee.png"
       inkscape:export-xdpi="7.1930156"
       inkscape:export-ydpi="7.1930156" />
    <path
       d="m -598.64203,1211.9536 q -0.1546,0.2949 -0.32465,0.4239 -0.17006,0.1105 -0.43287,0.1105 -0.27827,0 -0.60292,-0.1842 -0.30918,-0.1843 -0.72659,-0.4054 -0.41741,-0.2396 -0.95849,-0.4238 -0.52562,-0.1844 -1.25221,-0.1844 -1.12855,0 -1.77785,0.5714 -0.63384,0.5712 -0.63384,1.4925 0,0.6081 0.32465,1.0319 0.34011,0.4054 0.88119,0.7187 0.55654,0.3132 1.25222,0.5712 0.69568,0.2396 1.40681,0.5344 0.7266,0.2949 1.42228,0.6819 0.69567,0.3685 1.23676,0.9581 0.55654,0.5714 0.88119,1.3821 0.34011,0.8108 0.34011,1.9533 0,1.3636 -0.41741,2.5246 -0.40195,1.1425 -1.20584,1.9901 -0.8039,0.8292 -1.99427,1.3083 -1.17493,0.4607 -2.72087,0.4607 -0.81936,0 -1.6078,-0.1842 -0.77296,-0.1659 -1.49957,-0.4792 -0.71113,-0.3133 -1.32951,-0.7371 -0.60292,-0.4238 -1.0667,-0.9213 l 0.88119,-1.7323 q 0.17005,-0.3132 0.40194,-0.479 0.2319,-0.1659 0.58747,-0.1659 0.35556,0 0.66475,0.2396 0.32465,0.2396 0.74205,0.5159 0.41741,0.2764 0.97396,0.516 0.572,0.2396 1.43773,0.2396 0.68022,0 1.15946,-0.1843 0.4947,-0.2027 0.80389,-0.5159 0.32465,-0.3133 0.46379,-0.7187 0.15459,-0.4238 0.15459,-0.8661 0,-0.6634 -0.34011,-1.0872 -0.32464,-0.4238 -0.88119,-0.7371 -0.54107,-0.3132 -1.25222,-0.5528 -0.69567,-0.258 -1.43773,-0.5528 -0.72659,-0.2949 -1.43773,-0.6819 -0.69568,-0.4053 -1.25222,-1.0135 -0.54108,-0.608 -0.88119,-1.4925 -0.32465,-0.8846 -0.32465,-2.1376 0,-1.161 0.38649,-2.2113 0.38649,-1.0503 1.12854,-1.8243 0.75752,-0.7923 1.8706,-1.253 1.12854,-0.4792 2.59719,-0.4792 1.63871,0 2.98368,0.645 1.34498,0.6449 2.24163,1.6954 z"
       style="font-style:normal;font-variant:normal;font-weight:bold;font-stretch:normal;font-size:200px;line-height:100%;font-family:Lato;-inkscape-font-specification:'Lato Bold';letter-spacing:0px;word-spacing:0px;fill:#009ee0;fill-opacity:1;stroke:none;stroke-width:1.07054794px;stroke-linecap:butt;stroke-linejoin:miter;stroke-opacity:1"
       id="path3429"
       inkscape:connector-curvature="0"
       inkscape:export-filename="/home/kr0l/pixelflutffbsee.png"
       inkscape:export-xdpi="7.1930156"
       inkscape:export-ydpi="7.1930156" />
    <path
       d="m -584.5135,1215.5469 q 0,-0.8845 -0.21644,-1.6584 -0.20097,-0.7924 -0.61838,-1.382 -0.4174,-0.5897 -1.0667,-0.9214 -0.63384,-0.3501 -1.48411,-0.3501 -1.65417,0 -2.61265,1.124 -0.94304,1.1241 -1.20585,3.1879 z m -7.28142,2.7458 q 0.0927,1.4557 0.43286,2.5244 0.34011,1.0504 0.89665,1.7506 0.55655,0.6819 1.31406,1.032 0.77298,0.3316 1.70054,0.3316 0.92758,0 1.59233,-0.258 0.68022,-0.258 1.17492,-0.5712 0.51017,-0.3132 0.88119,-0.5712 0.38649,-0.2579 0.74206,-0.2579 0.47924,0 0.71113,0.4238 l 1.09762,1.6584 q -0.63383,0.8845 -1.42226,1.4926 -0.78844,0.5897 -1.65417,0.9582 -0.85027,0.3502 -1.74692,0.4976 -0.8812,0.1474 -1.716,0.1474 -1.65417,0 -3.07645,-0.645 -1.42227,-0.6633 -2.47352,-1.9348 -1.05124,-1.2899 -1.65416,-3.1695 -0.60292,-1.8981 -0.60292,-4.3857 0,-1.9349 0.52562,-3.6302 0.52563,-1.7138 1.49957,-2.9668 0.98941,-1.2715 2.39623,-2.0086 1.42226,-0.7371 3.20011,-0.7371 1.49957,0 2.76725,0.5713 1.26768,0.5712 2.17979,1.6769 0.9121,1.0872 1.42227,2.6904 0.52562,1.5847 0.52562,3.6301 0,1.032 -0.18551,1.4005 -0.18552,0.3502 -0.71114,0.3502 z"
       style="font-style:normal;font-variant:normal;font-weight:bold;font-stretch:normal;font-size:200px;line-height:100%;font-family:Lato;-inkscape-font-specification:'Lato Bold';letter-spacing:0px;word-spacing:0px;fill:#009ee0;fill-opacity:1;stroke:none;stroke-width:1.07054794px;stroke-linecap:butt;stroke-linejoin:miter;stroke-opacity:1"
       id="path3431"
       inkscape:connector-curvature="0"
       inkscape:export-filename="/home/kr0l/pixelflutffbsee.png"
       inkscape:export-xdpi="7.1930156"
       inkscape:export-ydpi="7.1930156" />
    <path
       d="m -568.02741,1215.5469 q 0,-0.8845 -0.21643,-1.6584 -0.20098,-0.7924 -0.61838,-1.382 -0.41741,-0.5897 -1.06671,-0.9214 -0.63384,-0.3501 -1.48411,-0.3501 -1.65417,0 -2.61265,1.124 -0.94302,1.1241 -1.20584,3.1879 z m -7.28142,2.7458 q 0.0927,1.4557 0.43287,2.5244 0.34011,1.0504 0.89665,1.7506 0.55654,0.6819 1.31405,1.032 0.77298,0.3316 1.70055,0.3316 0.92757,0 1.59233,-0.258 0.68021,-0.258 1.17491,-0.5712 0.51017,-0.3132 0.8812,-0.5712 0.38648,-0.2579 0.74206,-0.2579 0.47924,0 0.71113,0.4238 l 1.09763,1.6584 q -0.63384,0.8845 -1.42228,1.4926 -0.78843,0.5897 -1.65416,0.9582 -0.85028,0.3502 -1.74692,0.4976 -0.88119,0.1474 -1.71601,0.1474 -1.65416,0 -3.07644,-0.645 -1.42227,-0.6633 -2.47351,-1.9348 -1.05125,-1.2899 -1.65417,-3.1695 -0.60292,-1.8981 -0.60292,-4.3857 0,-1.9349 0.52562,-3.6302 0.52562,-1.7138 1.49957,-2.9668 0.98941,-1.2715 2.39622,-2.0086 1.42228,-0.7371 3.20012,-0.7371 1.49957,0 2.76725,0.5713 1.26768,0.5712 2.17978,1.6769 0.91211,1.0872 1.42228,2.6904 0.52562,1.5847 0.52562,3.6301 0,1.032 -0.18551,1.4005 -0.18551,0.3502 -0.71114,0.3502 z"
       style="font-style:normal;font-variant:normal;font-weight:bold;font-stretch:normal;font-size:200px;line-height:100%;font-family:Lato;-inkscape-font-specification:'Lato Bold';letter-spacing:0px;word-spacing:0px;fill:#009ee0;fill-opacity:1;stroke:none;stroke-width:1.07054794px;stroke-linecap:butt;stroke-linejoin:miter;stroke-opacity:1"
       id="path3433"
       inkscape:connector-curvature="0"
       inkscape:export-filename="/home/kr0l/pixelflutffbsee.png"
       inkscape:export-xdpi="7.1930156"
       inkscape:export-ydpi="7.1930156" />
    <path
       d="m -562.31657,1224.6684 q 0,-0.5712 0.17006,-1.0871 0.1855,-0.516 0.4947,-0.8845 0.30918,-0.3686 0.74205,-0.5898 0.43287,-0.221 0.92757,-0.221 0.4947,0 0.91211,0.221 0.43286,0.2212 0.74206,0.5898 0.32464,0.3685 0.51016,0.8845 0.18551,0.5159 0.18551,1.0871 0,0.5897 -0.18551,1.1057 -0.18552,0.4976 -0.51016,0.8661 -0.3092,0.3685 -0.74206,0.5712 -0.41741,0.2212 -0.91211,0.2212 -0.4947,0 -0.92757,-0.2212 -0.43287,-0.2027 -0.74205,-0.5712 -0.3092,-0.3685 -0.4947,-0.8661 -0.17006,-0.516 -0.17006,-1.1057 z"
       style="font-style:normal;font-variant:normal;font-weight:bold;font-stretch:normal;font-size:200px;line-height:100%;font-family:Lato;-inkscape-font-specification:'Lato Bold';text-align:start;letter-spacing:0px;word-spacing:0px;writing-mode:lr-tb;text-anchor:start;fill:#ffffff;fill-opacity:1;stroke:none;stroke-width:1.07054794px;stroke-linecap:butt;stroke-linejoin:miter;stroke-opacity:1"
       id="path3435"
       inkscape:connector-curvature="0"
       inkscape:export-filename="/home/kr0l/pixelflutffbsee.png"
       inkscape:export-xdpi="7.1930156"
       inkscape:export-ydpi="7.1930156" />
    <path
       d="m -553.27953,1227.1746 v -15.479 l -1.3759,-0.2579 q -0.44832,-0.1106 -0.72659,-0.3686 -0.26282,-0.2764 -0.26282,-0.774 v -1.8611 h 2.36531 v -1.4004 q 0,-1.6217 0.40195,-2.9116 0.41739,-1.2899 1.17491,-2.1928 0.77298,-0.903 1.8706,-1.382 1.09763,-0.4791 2.47352,-0.4791 1.09762,0 2.04065,0.3501 l -0.0773,2.2849 q -0.0154,0.258 -0.12367,0.4239 -0.10822,0.1474 -0.29374,0.2395 -0.17005,0.074 -0.40195,0.1106 -0.23189,0.018 -0.4947,0.018 -0.68021,0 -1.22129,0.1843 -0.52563,0.1658 -0.89666,0.608 -0.37102,0.4239 -0.57199,1.1425 -0.18552,0.7003 -0.18552,1.7507 v 1.253 h 4.12768 v 3.2432 h -4.00399 v 15.4976 h -3.8185 z"
       style="font-style:normal;font-variant:normal;font-weight:bold;font-stretch:normal;font-size:200px;line-height:100%;font-family:Lato;-inkscape-font-specification:'Lato Bold';letter-spacing:0px;word-spacing:0px;fill:#de2c68;fill-opacity:1;stroke:none;stroke-width:1.07054794px;stroke-linecap:butt;stroke-linejoin:miter;stroke-opacity:1"
       id="path3437"
       inkscape:connector-curvature="0"
       inkscape:export-filename="/home/kr0l/pixelflutffbsee.png"
       inkscape:export-xdpi="7.1930156"
       inkscape:export-ydpi="7.1930156" />
    <path
       d="m -539.67905,1211.5482 q 0.74206,-1.6953 1.76239,-2.6534 1.02031,-0.9767 2.41167,-0.9767 1.09762,0 1.76238,0.5712 l -0.24735,3.4091 q -0.0773,0.3316 -0.23189,0.4791 -0.13914,0.129 -0.38649,0.129 -0.23189,0 -0.69567,-0.092 -0.44833,-0.092 -0.88119,-0.092 -0.63384,0 -1.12855,0.2211 -0.4947,0.2212 -0.89665,0.645 -0.38649,0.4054 -0.69568,0.9951 -0.29372,0.5896 -0.55654,1.3451 v 11.6461 h -3.8185 v -18.9064 h 2.24164 q 0.58746,0 0.81935,0.258 0.23189,0.2396 0.30918,0.8845 l 0.2319,2.1375 z"
       style="font-style:normal;font-variant:normal;font-weight:bold;font-stretch:normal;font-size:200px;line-height:100%;font-family:Lato;-inkscape-font-specification:'Lato Bold';letter-spacing:0px;word-spacing:0px;fill:#de2c68;fill-opacity:1;stroke:none;stroke-width:1.07054794px;stroke-linecap:butt;stroke-linejoin:miter;stroke-opacity:1"
       id="path3439"
       inkscape:connector-curvature="0"
       inkscape:export-filename="/home/kr0l/pixelflutffbsee.png"
       inkscape:export-xdpi="7.1930156"
       inkscape:export-ydpi="7.1930156" />
    <path
       d="m -521.95088,1215.5469 q 0,-0.8845 -0.21643,-1.6584 -0.20097,-0.7924 -0.61838,-1.382 -0.41741,-0.5897 -1.0667,-0.9214 -0.63384,-0.3501 -1.48412,-0.3501 -1.65416,0 -2.61266,1.124 -0.94302,1.1241 -1.20583,3.1879 z m -7.28142,2.7458 q 0.0927,1.4557 0.43286,2.5244 0.34011,1.0504 0.89666,1.7506 0.55653,0.6819 1.31405,1.032 0.77298,0.3316 1.70055,0.3316 0.92756,0 1.59232,-0.258 0.68023,-0.258 1.17493,-0.5712 0.51016,-0.3132 0.88119,-0.5712 0.38649,-0.2579 0.74206,-0.2579 0.47924,0 0.71113,0.4238 l 1.09762,1.6584 q -0.63384,0.8845 -1.42227,1.4926 -0.78843,0.5897 -1.65416,0.9582 -0.85027,0.3502 -1.74693,0.4976 -0.88119,0.1474 -1.716,0.1474 -1.65416,0 -3.07644,-0.645 -1.42227,-0.6633 -2.47352,-1.9348 -1.05125,-1.2899 -1.65417,-3.1695 -0.60292,-1.8981 -0.60292,-4.3857 0,-1.9349 0.52563,-3.6302 0.52562,-1.7138 1.49957,-2.9668 0.98941,-1.2715 2.39622,-2.0086 1.42227,-0.7371 3.20011,-0.7371 1.49958,0 2.76725,0.5713 1.26768,0.5712 2.17979,1.6769 0.91211,1.0872 1.42227,2.6904 0.52563,1.5847 0.52563,3.6301 0,1.032 -0.18552,1.4005 -0.18551,0.3502 -0.71113,0.3502 z"
       style="font-style:normal;font-variant:normal;font-weight:bold;font-stretch:normal;font-size:200px;line-height:100%;font-family:Lato;-inkscape-font-specification:'Lato Bold';letter-spacing:0px;word-spacing:0px;fill:#de2c68;fill-opacity:1;stroke:none;stroke-width:1.07054794px;stroke-linecap:butt;stroke-linejoin:miter;stroke-opacity:1"
       id="path3441"
       inkscape:connector-curvature="0"
       inkscape:export-filename="/home/kr0l/pixelflutffbsee.png"
       inkscape:export-xdpi="7.1930156"
       inkscape:export-ydpi="7.1930156" />
    <path
       d="m -511.72586,1208.2682 v 18.9064 h -3.83396 v -18.9064 z m 0.52562,-5.5097 q 0,0.5896 -0.20098,1.1055 -0.20097,0.516 -0.54107,0.903 -0.32466,0.3869 -0.77298,0.6265 -0.44832,0.2212 -0.95849,0.2212 -0.4947,0 -0.94303,-0.2212 -0.43286,-0.2396 -0.75752,-0.6265 -0.32464,-0.387 -0.52562,-0.903 -0.18551,-0.5159 -0.18551,-1.1055 0,-0.6082 0.18551,-1.1425 0.20098,-0.5344 0.52562,-0.9214 0.32466,-0.387 0.75752,-0.6081 0.44833,-0.2396 0.94303,-0.2396 0.51017,0 0.95849,0.2396 0.44832,0.2211 0.77298,0.6081 0.3401,0.387 0.54107,0.9214 0.20098,0.5343 0.20098,1.1425 z"
       style="font-style:normal;font-variant:normal;font-weight:bold;font-stretch:normal;font-size:200px;line-height:100%;font-family:Lato;-inkscape-font-specification:'Lato Bold';letter-spacing:0px;word-spacing:0px;fill:#de2c68;fill-opacity:1;stroke:none;stroke-width:1.07054794px;stroke-linecap:butt;stroke-linejoin:miter;stroke-opacity:1"
       id="path3443"
       inkscape:connector-curvature="0"
       inkscape:export-filename="/home/kr0l/pixelflutffbsee.png"
       inkscape:export-xdpi="7.1930156"
       inkscape:export-ydpi="7.1930156" />
    <path
       d="m -506.71989,1227.1746 v -15.479 l -1.3759,-0.2579 q -0.44833,-0.1106 -0.72659,-0.3686 -0.26281,-0.2764 -0.26281,-0.774 v -1.8611 h 2.3653 v -1.4004 q 0,-1.6217 0.40195,-2.9116 0.4174,-1.2899 1.17491,-2.1928 0.77298,-0.903 1.8706,-1.382 1.09762,-0.4791 2.47351,-0.4791 1.09764,0 2.04066,0.3501 l -0.0773,2.2849 q -0.0154,0.258 -0.12368,0.4239 -0.10821,0.1474 -0.29373,0.2395 -0.17006,0.074 -0.40195,0.1106 -0.23189,0.018 -0.4947,0.018 -0.68022,0 -1.2213,0.1843 -0.52563,0.1658 -0.89665,0.608 -0.37103,0.4239 -0.572,1.1425 -0.18552,0.7003 -0.18552,1.7507 v 1.253 h 4.12769 v 3.2432 h -4.00401 v 15.4976 h -3.81849 z"
       style="font-style:normal;font-variant:normal;font-weight:bold;font-stretch:normal;font-size:200px;line-height:100%;font-family:Lato;-inkscape-font-specification:'Lato Bold';letter-spacing:0px;word-spacing:0px;fill:#de2c68;fill-opacity:1;stroke:none;stroke-width:1.07054794px;stroke-linecap:butt;stroke-linejoin:miter;stroke-opacity:1"
       id="path3445"
       inkscape:connector-curvature="0"
       inkscape:export-filename="/home/kr0l/pixelflutffbsee.png"
       inkscape:export-xdpi="7.1930156"
       inkscape:export-ydpi="7.1930156" />
    <path
       d="m -483.05528,1208.2682 v 18.9064 h -2.33438 q -0.75751,0 -0.95849,-0.8293 l -0.26282,-1.5111 q -0.97394,1.1795 -2.14886,1.9165 -1.17492,0.7187 -2.76725,0.7187 -1.2986,0 -2.30347,-0.516 -0.9894,-0.5343 -1.66962,-1.4926 -0.68022,-0.9582 -1.03578,-2.2665 -0.34011,-1.3268 -0.34011,-2.9115 v -12.0146 h 3.81849 v 12.0146 q 0,1.7322 0.66476,2.6903 0.68021,0.9398 2.0252,0.9398 0.9894,0 1.85513,-0.516 0.86573,-0.5343 1.63871,-1.4557 v -13.673 z"
       style="font-style:normal;font-variant:normal;font-weight:bold;font-stretch:normal;font-size:200px;line-height:100%;font-family:Lato;-inkscape-font-specification:'Lato Bold';letter-spacing:0px;word-spacing:0px;fill:#de2c68;fill-opacity:1;stroke:none;stroke-width:1.07054794px;stroke-linecap:butt;stroke-linejoin:miter;stroke-opacity:1"
       id="path3447"
       inkscape:connector-curvature="0"
       inkscape:export-filename="/home/kr0l/pixelflutffbsee.png"
       inkscape:export-xdpi="7.1930156"
       inkscape:export-ydpi="7.1930156" />
    <path
       d="m -475.69801,1210.5901 q 0.47924,-0.5713 1.00487,-1.0505 0.54107,-0.4974 1.12853,-0.8292 0.60293,-0.3501 1.28314,-0.5343 0.68022,-0.2028 1.48411,-0.2028 1.2986,0 2.30347,0.5344 1.00487,0.5161 1.66963,1.4742 0.68021,0.9398 1.02032,2.2666 0.35557,1.3083 0.35557,2.893 v 12.0331 h -3.8185 v -12.0331 q 0,-1.7321 -0.66476,-2.6719 -0.66475,-0.9582 -2.02518,-0.9582 -0.98941,0 -1.85515,0.5344 -0.86573,0.5343 -1.6387,1.4557 v 13.6731 h -3.8185 v -18.9064 h 2.33438 q 0.74207,0 0.97396,0.8292 z"
       style="font-style:normal;font-variant:normal;font-weight:bold;font-stretch:normal;font-size:200px;line-height:100%;font-family:Lato;-inkscape-font-specification:'Lato Bold';letter-spacing:0px;word-spacing:0px;fill:#de2c68;fill-opacity:1;stroke:none;stroke-width:1.07054794px;stroke-linecap:butt;stroke-linejoin:miter;stroke-opacity:1"
       id="path3449"
       inkscape:connector-curvature="0"
       inkscape:export-filename="/home/kr0l/pixelflutffbsee.png"
       inkscape:export-xdpi="7.1930156"
       inkscape:export-ydpi="7.1930156" />
    <path
       d="m -457.99834,1199.7917 v 15.6816 h 0.71114 q 0.38649,0 0.60292,-0.1106 0.23189,-0.129 0.46378,-0.4975 l 3.94218,-5.8046 q 0.24735,-0.387 0.54108,-0.5897 0.30919,-0.2027 0.78843,-0.2027 h 3.49385 l -4.93157,7.0208 q -0.52563,0.8292 -1.14401,1.2715 0.32465,0.2763 0.572,0.6449 0.26281,0.3686 0.4947,0.7924 l 5.28715,9.1768 h -3.44747 q -0.44832,0 -0.77297,-0.1659 -0.32465,-0.1843 -0.54109,-0.645 l -4.05038,-7.1681 q -0.21644,-0.4239 -0.44832,-0.5529 -0.2319,-0.129 -0.69568,-0.129 h -0.86574 v 8.6609 h -3.81849 v -27.3829 z"
       style="font-style:normal;font-variant:normal;font-weight:bold;font-stretch:normal;font-size:200px;line-height:100%;font-family:Lato;-inkscape-font-specification:'Lato Bold';letter-spacing:0px;word-spacing:0px;fill:#de2c68;fill-opacity:1;stroke:none;stroke-width:1.07054794px;stroke-linecap:butt;stroke-linejoin:miter;stroke-opacity:1"
       id="path3451"
       inkscape:connector-curvature="0"
       inkscape:export-filename="/home/kr0l/pixelflutffbsee.png"
       inkscape:export-xdpi="7.1930156"
       inkscape:export-ydpi="7.1930156" />
    <path
       d="m -445.82689,1224.6684 q 0,-0.5712 0.17006,-1.0871 0.18551,-0.516 0.4947,-0.8845 0.30919,-0.3686 0.74205,-0.5898 0.43287,-0.221 0.92757,-0.221 0.4947,0 0.91211,0.221 0.43288,0.2212 0.74205,0.5898 0.32466,0.3685 0.51017,0.8845 0.18553,0.5159 0.18553,1.0871 0,0.5897 -0.18553,1.1057 -0.18551,0.4976 -0.51017,0.8661 -0.30917,0.3685 -0.74205,0.5712 -0.41741,0.2212 -0.91211,0.2212 -0.4947,0 -0.92757,-0.2212 -0.43286,-0.2027 -0.74205,-0.5712 -0.30919,-0.3685 -0.4947,-0.8661 -0.17006,-0.516 -0.17006,-1.1057 z"
       style="font-style:normal;font-variant:normal;font-weight:bold;font-stretch:normal;font-size:200px;line-height:100%;font-family:Lato;-inkscape-font-specification:'Lato Bold';text-align:start;letter-spacing:0px;word-spacing:0px;writing-mode:lr-tb;text-anchor:start;fill:#ffffff;fill-opacity:1;stroke:none;stroke-width:1.07054794px;stroke-linecap:butt;stroke-linejoin:miter;stroke-opacity:1"
       id="path3453"
       inkscape:connector-curvature="0"
       inkscape:export-filename="/home/kr0l/pixelflutffbsee.png"
       inkscape:export-xdpi="7.1930156"
       inkscape:export-ydpi="7.1930156" />
    <path
       d="m -434.33179,1210.5901 q 0.47925,-0.5713 1.00487,-1.0505 0.54108,-0.4974 1.12854,-0.8292 0.60294,-0.3501 1.28314,-0.5343 0.68022,-0.2028 1.48412,-0.2028 1.29859,0 2.30346,0.5344 1.00487,0.5161 1.66962,1.4742 0.68023,0.9398 1.02034,2.2666 0.35555,1.3083 0.35555,2.893 v 12.0331 h -3.81848 v -12.0331 q 0,-1.7321 -0.66478,-2.6719 -0.66474,-0.9582 -2.02516,-0.9582 -0.98943,0 -1.85517,0.5344 -0.86572,0.5343 -1.6387,1.4557 v 13.6731 h -3.81849 v -18.9064 h 2.33438 q 0.74205,0 0.97396,0.8292 z"
       style="font-style:normal;font-variant:normal;font-weight:bold;font-stretch:normal;font-size:200px;line-height:100%;font-family:Lato;-inkscape-font-specification:'Lato Bold';text-align:start;letter-spacing:0px;word-spacing:0px;writing-mode:lr-tb;text-anchor:start;fill:#ffffff;fill-opacity:1;stroke:none;stroke-width:1.07054794px;stroke-linecap:butt;stroke-linejoin:miter;stroke-opacity:1"
       id="path3455"
       inkscape:connector-curvature="0"
       inkscape:export-filename="/home/kr0l/pixelflutffbsee.png"
       inkscape:export-xdpi="7.1930156"
       inkscape:export-ydpi="7.1930156" />
    <path
       d="m -410.23189,1215.5469 q 0,-0.8845 -0.21642,-1.6584 -0.201,-0.7924 -0.61839,-1.382 -0.41741,-0.5897 -1.06671,-0.9214 -0.63383,-0.3501 -1.48412,-0.3501 -1.65417,0 -2.61264,1.124 -0.94303,1.1241 -1.20584,3.1879 z m -7.28142,2.7458 q 0.0927,1.4557 0.43287,2.5244 0.34009,1.0504 0.89664,1.7506 0.55655,0.6819 1.31405,1.032 0.77298,0.3316 1.70057,0.3316 0.92754,0 1.59231,-0.258 0.68021,-0.258 1.17492,-0.5712 0.51017,-0.3132 0.88118,-0.5712 0.38651,-0.2579 0.74206,-0.2579 0.47926,0 0.71116,0.4238 l 1.09761,1.6584 q -0.63383,0.8845 -1.42228,1.4926 -0.78843,0.5897 -1.65414,0.9582 -0.8503,0.3502 -1.74693,0.4976 -0.88119,0.1474 -1.71601,0.1474 -1.65417,0 -3.07645,-0.645 -1.42226,-0.6633 -2.47352,-1.9348 -1.05124,-1.2899 -1.65415,-3.1695 -0.60292,-1.8981 -0.60292,-4.3857 0,-1.9349 0.5256,-3.6302 0.52564,-1.7138 1.49958,-2.9668 0.98942,-1.2715 2.39623,-2.0086 1.42227,-0.7371 3.20011,-0.7371 1.49958,0 2.76726,0.5713 1.26766,0.5712 2.17978,1.6769 0.91211,1.0872 1.42229,2.6904 0.52559,1.5847 0.52559,3.6301 0,1.032 -0.1855,1.4005 -0.1855,0.3502 -0.71113,0.3502 z"
       style="font-style:normal;font-variant:normal;font-weight:bold;font-stretch:normal;font-size:200px;line-height:100%;font-family:Lato;-inkscape-font-specification:'Lato Bold';text-align:start;letter-spacing:0px;word-spacing:0px;writing-mode:lr-tb;text-anchor:start;fill:#ffffff;fill-opacity:1;stroke:none;stroke-width:1.07054794px;stroke-linecap:butt;stroke-linejoin:miter;stroke-opacity:1"
       id="path3457"
       inkscape:connector-curvature="0"
       inkscape:export-filename="/home/kr0l/pixelflutffbsee.png"
       inkscape:export-xdpi="7.1930156"
       inkscape:export-ydpi="7.1930156" />
    <path
       d="m -398.85855,1227.4694 q -2.07156,0 -3.18465,-1.3821 -1.09763,-1.4005 -1.09763,-3.8513 v -10.5588 h -1.62324 q -0.30919,0 -0.52564,-0.2395 -0.21642,-0.2396 -0.21642,-0.7187 v -1.8058 l 2.55082,-0.4976 0.80389,-5.1596 q 0.0773,-0.3685 0.29374,-0.5713 0.21642,-0.2026 0.55654,-0.2026 h 1.97881 v 5.9519 h 4.2359 v 3.2432 h -4.2359 v 10.2456 q 0,0.8845 0.35556,1.3821 0.37103,0.4974 1.00488,0.4974 0.35556,0 0.58745,-0.092 0.24735,-0.1106 0.41742,-0.2212 0.18551,-0.1106 0.32464,-0.2027 0.13914,-0.1105 0.27828,-0.1105 0.17005,0 0.27826,0.1105 0.10821,0.092 0.23188,0.2949 l 1.14403,2.2112 q -0.83482,0.8292 -1.91698,1.2531 -1.08217,0.4238 -2.24164,0.4238 z"
       style="font-style:normal;font-variant:normal;font-weight:bold;font-stretch:normal;font-size:200px;line-height:100%;font-family:Lato;-inkscape-font-specification:'Lato Bold';text-align:start;letter-spacing:0px;word-spacing:0px;writing-mode:lr-tb;text-anchor:start;fill:#ffffff;fill-opacity:1;stroke:none;stroke-width:1.07054794px;stroke-linecap:butt;stroke-linejoin:miter;stroke-opacity:1"
       id="path3459"
       inkscape:connector-curvature="0"
       inkscape:export-filename="/home/kr0l/pixelflutffbsee.png"
       inkscape:export-xdpi="7.1930156"
       inkscape:export-ydpi="7.1930156" />
  </g>
</svg>
